<?xml version="1.0" encoding="utf-8"?>
<svg viewBox="0 0 220 180" xmlns="http://www.w3.org/2000/svg" xmlns:bx="https://boxy-svg.com">
  <defs>
    <filter id="drop-shadow-filter-1" x="-500%" y="-500%" width="1000%" height="1000%" bx:preset="drop-shadow 1 0 2 0 0.5 rgba(0,0,0,0.26)">
      <feGaussianBlur in="SourceAlpha" stdDeviation="0"/>
      <feOffset dx="0" dy="2"/>
      <feComponentTransfer result="offsetblur">
        <feFuncA id="spread-ctrl" type="linear" slope="1"/>
      </feComponentTransfer>
      <feFlood flood-color="rgba(0,0,0,0.26)"/>
      <feComposite in2="offsetblur" operator="in"/>
      <feMerge>
        <feMergeNode/>
        <feMergeNode in="SourceGraphic"/>
      </feMerge>
    </filter>
    <filter id="drop-shadow-filter-0" x="-500%" y="-500%" width="1000%" height="1000%" bx:preset="drop-shadow 1 0 2 0 0.5 rgba(0,0,0,0.28)">
      <feGaussianBlur in="SourceAlpha" stdDeviation="0"/>
      <feOffset dx="0" dy="2"/>
      <feComponentTransfer result="offsetblur">
        <feFuncA id="spread-ctrl" type="linear" slope="1"/>
      </feComponentTransfer>
      <feFlood flood-color="rgba(0,0,0,0.28)"/>
      <feComposite in2="offsetblur" operator="in"/>
      <feMerge>
        <feMergeNode/>
        <feMergeNode in="SourceGraphic"/>
      </feMerge>
    </filter>
  </defs>
  <path d="M 107.123 28.612 C 106.422 27.312 105.196 26.662 103.444 26.662 C 101.692 26.662 100.05 26.912 98.517 27.412 C 96.984 27.912 95.167 28.612 93.065 29.512 C 89.649 31.112 86.89 32.612 84.788 34.012 C 76.905 38.812 69.548 44.437 62.716 50.887 C 55.884 57.337 52.293 62.162 51.942 65.362 C 51.767 67.862 52.95 69.912 55.49 71.512 C 57.679 73.012 60.219 74.437 63.11 75.787 C 66 77.137 68.102 78.162 69.416 78.862 C 76.423 82.862 79.927 88.162 79.927 94.762 C 79.927 97.662 79.182 100.462 77.693 103.162 C 75.328 107.362 71.759 110.837 66.986 113.587 C 62.212 116.337 57.11 118.262 51.68 119.362 C 46.074 120.462 41.432 121.012 37.753 121.012 C 31.096 121.012 24.44 119.387 17.783 116.137 C 11.126 112.887 7.01 107.812 5.433 100.912 C 8.674 104.212 13.141 106.562 18.834 107.962 C 24.527 109.362 29.958 110.062 35.126 110.062 C 42.833 109.962 48.548 109.262 52.271 107.962 C 55.993 106.662 59.234 105.137 61.993 103.387 C 64.752 101.637 67.292 99.587 69.613 97.237 C 71.934 94.887 73.095 92.287 73.095 89.437 C 73.095 86.587 71.431 84.012 68.102 81.712 C 67.84 81.512 65.19 80.262 60.154 77.962 C 55.117 75.662 51.264 73.112 48.592 70.312 C 45.921 67.512 44.585 64.312 44.585 60.712 C 44.585 53.912 48.264 46.987 55.621 39.937 C 62.978 32.887 71.015 27.412 79.73 23.512 C 88.445 19.612 95.868 17.662 101.999 17.662 C 106.291 17.662 109.619 18.537 111.984 20.287 C 114.349 22.037 115.531 24.462 115.531 27.562 C 115.531 27.962 115.531 28.412 115.531 28.912 C 115.268 32.012 110.495 38.462 101.211 48.262 C 97.795 51.862 94.795 55.887 92.211 60.337 C 89.627 64.787 88.335 68.712 88.335 72.112 C 88.335 72.412 88.335 72.712 88.335 73.012 C 85.62 70.612 84.262 67.412 84.262 63.412 C 84.262 59.812 85.62 55.412 88.335 50.212 C 92.277 42.612 98.539 35.412 107.123 28.612 Z" style="fill: rgb(51, 51, 51); line-height: 42.8759px; text-transform: uppercase; white-space: pre; filter: url(#drop-shadow-filter-1);">
    <title>S Amb Sombra</title>
  </path>
  <path d="M 115.884 129.919 C 115.651 129.919 115.535 129.519 115.535 128.719 C 115.535 127.319 117.164 123.119 120.423 116.119 C 120.889 115.119 122.78 111.169 126.098 104.269 C 129.415 97.369 131.714 92.519 132.995 89.719 C 137.767 79.119 140.954 71.069 142.554 65.569 C 144.155 60.069 144.955 55.519 144.955 51.919 C 144.955 43.719 140.997 39.619 133.082 39.619 C 124.701 39.619 113.818 43.519 100.432 51.319 C 91.061 56.819 86.376 61.919 86.376 66.619 C 86.376 68.319 87.046 69.969 88.384 71.569 C 88.792 71.969 88.777 72.194 88.34 72.244 C 87.904 72.294 87.54 72.169 87.249 71.869 C 85.503 69.869 84.63 67.269 84.63 64.069 C 84.63 60.869 85.169 57.694 86.245 54.544 C 87.322 51.394 89.083 48.669 91.527 46.369 C 97.114 40.869 103.807 36.419 111.606 33.019 C 119.987 29.319 127.815 27.469 135.09 27.469 C 142.772 27.469 147.719 29.919 149.931 34.819 C 151.386 37.919 152.113 40.994 152.113 44.044 C 152.113 47.094 151.764 50.119 151.066 53.119 C 149.785 59.219 147.719 65.219 144.867 71.119 C 144.285 72.419 142.321 76.444 138.975 83.194 C 135.628 89.944 133.024 95.319 131.161 99.319 C 152.172 61.319 166.954 42.319 175.51 42.319 C 177.954 42.319 179.7 44.119 180.748 47.719 C 181.33 49.719 181.621 51.469 181.621 52.969 C 181.621 54.469 181.563 56.169 181.446 58.069 C 181.272 63.069 178.827 72.419 174.113 86.119 C 181.214 73.419 187.557 63.519 193.145 56.419 C 199.896 47.819 205.658 43.519 210.43 43.519 C 213.165 43.519 214.533 45.494 214.533 49.444 C 214.533 53.394 213.078 59.069 210.168 66.469 C 192.999 109.769 184.415 138.569 184.415 152.869 C 184.415 157.369 185.171 159.819 186.684 160.219 C 187.616 160.519 188.605 160.019 189.653 158.719 C 190.06 158.219 190.409 158.294 190.7 158.944 C 190.991 159.594 190.875 160.344 190.351 161.194 C 189.827 162.044 189.216 162.469 188.518 162.469 C 187.819 162.469 187.004 162.369 186.073 162.169 C 185.142 161.969 183.92 161.344 182.407 160.294 C 180.893 159.244 179.628 157.494 178.609 155.044 C 177.591 152.594 177.081 149.869 177.081 146.869 C 177.081 142.569 177.401 138.719 178.042 135.319 C 179.613 127.419 186.975 107.719 200.129 76.219 C 204.086 66.719 206.065 59.919 206.065 55.819 C 206.065 52.719 205.134 51.169 203.271 51.169 C 200.769 51.169 197.83 53.369 194.454 57.769 C 187.237 67.169 179.177 80.269 170.272 97.069 C 167.827 103.869 164.801 111.819 161.193 120.919 C 160.669 122.219 160.058 122.869 159.359 122.869 C 157.031 122.869 155.867 121.969 155.867 120.169 C 155.867 119.769 155.926 119.369 156.042 118.969 C 165.703 90.169 171.116 71.719 172.28 63.619 C 172.629 60.819 172.804 58.644 172.804 57.094 C 172.804 55.544 172.775 54.319 172.716 53.419 C 172.309 50.519 171.261 49.069 169.573 49.069 C 167.886 49.069 165.587 50.719 162.677 54.019 C 157.672 59.519 151.473 68.369 144.082 80.569 C 136.69 92.769 129.59 105.419 122.78 118.519 C 122.606 118.819 122.402 118.969 122.169 118.969 C 118.794 126.269 116.699 129.919 115.884 129.919 Z" style="fill: rgb(51, 51, 51); text-transform: uppercase; white-space: pre; filter: url(#drop-shadow-filter-0);">
    <title>M amb sombra</title>
  </path>
  <path d="M 107.09 28.65 C 106.389 27.35 105.163 26.7 103.411 26.7 C 101.659 26.7 100.017 26.95 98.484 27.45 C 96.951 27.95 95.134 28.65 93.032 29.55 C 89.616 31.15 86.857 32.65 84.755 34.05 C 76.872 38.85 69.515 44.475 62.683 50.925 C 55.851 57.375 52.26 62.2 51.909 65.4 C 51.734 67.9 52.917 69.95 55.457 71.55 C 57.646 73.05 60.186 74.475 63.077 75.825 C 65.967 77.175 68.069 78.2 69.383 78.9 C 76.39 82.9 79.894 88.2 79.894 94.8 C 79.894 97.7 79.149 100.5 77.66 103.2 C 75.295 107.4 71.726 110.875 66.953 113.625 C 62.179 116.375 57.077 118.3 51.647 119.4 C 46.041 120.5 41.399 121.05 37.72 121.05 C 31.063 121.05 24.407 119.425 17.75 116.175 C 11.093 112.925 6.977 107.85 5.4 100.95 C 8.641 104.25 13.108 106.6 18.801 108 C 24.494 109.4 29.925 110.1 35.093 110.1 C 42.8 110 48.515 109.3 52.238 108 C 55.96 106.7 59.201 105.175 61.96 103.425 C 64.719 101.675 67.259 99.625 69.58 97.275 C 71.901 94.925 73.062 92.325 73.062 89.475 C 73.062 86.625 71.398 84.05 68.069 81.75 C 67.807 81.55 65.157 80.3 60.121 78 C 55.084 75.7 51.231 73.15 48.559 70.35 C 45.888 67.55 44.552 64.35 44.552 60.75 C 44.552 53.95 48.231 47.025 55.588 39.975 C 62.945 32.925 70.982 27.45 79.697 23.55 C 88.412 19.65 95.835 17.7 101.966 17.7 C 106.258 17.7 109.586 18.575 111.951 20.325 C 114.316 22.075 115.498 24.5 115.498 27.6 C 115.498 28 115.498 28.45 115.498 28.95 C 115.235 32.05 110.462 38.5 101.178 48.3 C 97.762 51.9 94.762 55.925 92.178 60.375 C 89.594 64.825 88.302 68.75 88.302 72.15 C 88.302 72.45 88.302 72.75 88.302 73.05 C 85.587 70.65 84.229 67.45 84.229 63.45 C 84.229 59.85 85.587 55.45 88.302 50.25 C 92.244 42.65 98.506 35.45 107.09 28.65 Z" style="fill: rgb(51, 51, 51); line-height: 42.8759px; text-transform: uppercase; white-space: pre; filter: none;">
    <title>S sense Sombra</title>
  </path>
  <path d="M 115.854 129.95 C 115.621 129.95 115.504 129.55 115.504 128.75 C 115.504 127.35 117.134 123.15 120.393 116.15 C 120.859 115.15 122.75 111.2 126.068 104.3 C 129.385 97.4 131.684 92.55 132.965 89.75 C 137.737 79.15 140.923 71.1 142.524 65.6 C 144.124 60.1 144.925 55.55 144.925 51.95 C 144.925 43.75 140.967 39.65 133.052 39.65 C 124.671 39.65 113.788 43.55 100.401 51.35 C 91.031 56.85 86.346 61.95 86.346 66.65 C 86.346 68.35 87.015 70 88.354 71.6 C 88.761 72 88.747 72.225 88.31 72.275 C 87.874 72.325 87.51 72.2 87.219 71.9 C 85.473 69.9 84.6 67.3 84.6 64.1 C 84.6 60.9 85.138 57.725 86.215 54.575 C 87.292 51.425 89.052 48.7 91.497 46.4 C 97.084 40.9 103.777 36.45 111.576 33.05 C 119.957 29.35 127.785 27.5 135.06 27.5 C 142.742 27.5 147.689 29.95 149.901 34.85 C 151.356 37.95 152.083 41.025 152.083 44.075 C 152.083 47.125 151.734 50.15 151.036 53.15 C 149.755 59.25 147.689 65.25 144.837 71.15 C 144.255 72.45 142.291 76.475 138.945 83.225 C 135.598 89.975 132.994 95.35 131.131 99.35 C 152.142 61.35 166.924 42.35 175.48 42.35 C 177.924 42.35 179.67 44.15 180.718 47.75 C 181.3 49.75 181.591 51.5 181.591 53 C 181.591 54.5 181.533 56.2 181.416 58.1 C 181.242 63.1 178.797 72.45 174.083 86.15 C 181.183 73.45 187.527 63.55 193.115 56.45 C 199.866 47.85 205.628 43.55 210.4 43.55 C 213.135 43.55 214.503 45.525 214.503 49.475 C 214.503 53.425 213.048 59.1 210.138 66.5 C 192.969 109.8 184.384 138.6 184.384 152.9 C 184.384 157.4 185.141 159.85 186.654 160.25 C 187.585 160.55 188.575 160.05 189.623 158.75 C 190.03 158.25 190.379 158.325 190.67 158.975 C 190.961 159.625 190.845 160.375 190.321 161.225 C 189.797 162.075 189.186 162.5 188.488 162.5 C 187.789 162.5 186.974 162.4 186.043 162.2 C 185.112 162 183.89 161.375 182.377 160.325 C 180.863 159.275 179.598 157.525 178.579 155.075 C 177.561 152.625 177.051 149.9 177.051 146.9 C 177.051 142.6 177.371 138.75 178.012 135.35 C 179.583 127.45 186.945 107.75 200.099 76.25 C 204.056 66.75 206.035 59.95 206.035 55.85 C 206.035 52.75 205.104 51.2 203.241 51.2 C 200.739 51.2 197.8 53.4 194.424 57.8 C 187.207 67.2 179.146 80.3 170.242 97.1 C 167.797 103.9 164.771 111.85 161.163 120.95 C 160.639 122.25 160.028 122.9 159.329 122.9 C 157.001 122.9 155.837 122 155.837 120.2 C 155.837 119.8 155.895 119.4 156.012 119 C 165.673 90.2 171.086 71.75 172.25 63.65 C 172.599 60.85 172.774 58.675 172.774 57.125 C 172.774 55.575 172.744 54.35 172.686 53.45 C 172.279 50.55 171.231 49.1 169.543 49.1 C 167.856 49.1 165.557 50.75 162.647 54.05 C 157.641 59.55 151.443 68.4 144.052 80.6 C 136.66 92.8 129.56 105.45 122.75 118.55 C 122.576 118.85 122.372 119 122.139 119 C 118.764 126.3 116.668 129.95 115.854 129.95 Z" style="fill: rgb(51, 51, 51); text-transform: uppercase; white-space: pre; filter: none;">
    <title>M sense Sombra</title>
  </path>
</svg>